<svg xmlns="http://www.w3.org/2000/svg" width="513.765" height="755.94" viewBox="0 0 513.765 755.94">
  <g id="XMLID_5997_" transform="translate(0)">
    <g id="XMLID_6041_" transform="translate(8.506 0)">
      <path id="XMLID_6068_" d="M83.472,118.928c1.814.476,24.243,9.863,24.243,9.863l10.018-24.867c-2.226-1.538-22.956-11.137-22.956-11.137Z" transform="translate(286.965 463.959)" fill="#fff"/>
      <path id="XMLID_6067_" d="M112.087,106.051C109.88,104.5,89.163,94.9,89.163,94.9L77.814,121.055c1.84.476,24.262,9.857,24.262,9.857Z" transform="translate(256.22 475.447)" fill="#fff"/>
      <path id="XMLID_6066_" d="M109.55,110.739c-17.082,12.019-19.2,33.527-19.2,33.527,9.5-13.492,30.162-29.313,30.162-29.313,20.466-17.294,18.575-33.746,18.575-33.746-7.161,12.231-29.538,29.532-29.538,29.532" transform="translate(324.345 401.035)" fill="#fff"/>
      <path id="XMLID_6065_" d="M83.779,89.85s-6.035-2.548-6.64,9.8c0,0,8.531-7.6,9.2,15.5-.006.006,5.025-15.5-2.561-25.3" transform="translate(252.553 446.817)" fill="#fff"/>
      <path id="XMLID_6064_" d="M94.3,97.529c6.318.322,6.627-4.427,6.627-4.427.322-4.427-4.1-4.124-4.1-4.124C84.17,92.787,79.107,120,79.107,120,87.934,93.425,94.3,97.529,94.3,97.529" transform="translate(263.246 443.242)" fill="#fff"/>
      <path id="XMLID_6063_" d="M55.734,107.88s-6.408,7.856-10.236,4.034c0,0-4.208-2.529-1.641-24.217,0,0-11.311,24.79-2.683,32.974.006,0,10.88,8.531,14.56-12.791" transform="translate(39.494 436.301)" fill="#fff"/>
      <path id="XMLID_6062_" d="M63.5,139.754s12.437,7.592,16.136-13.7c0,0-6.234,9.072-12.334,4.832,0,0-5.282-4.832-2.541-33.006.006,0-13.3,34.286-1.261,41.878" transform="translate(151.029 491.613)" fill="#fff"/>
      <path id="XMLID_6061_" d="M53.669,80.484,49.043,96.736c27.421,19.179,19.823,66.642,19.823,66.642,19.81-63.5-15.2-82.894-15.2-82.894" transform="translate(99.882 397.106)" fill="#fff"/>
      <path id="XMLID_6060_" d="M25.9,223.624s41.312-2.381,65.182-34.5c0,0,13.273-16.606,12.179-37.175,0,0-.174-13.762-15.969-9.007,0,0-12.81,4.427-15.184-3.326,0,0-1.589-4.742,3.944-10.436,0,0,18.189-19.308,18.665-38.14,0,0-8.879,11.716-16.915,21.361,0,0-19.842,23.361-21.309,40.443,0,0-3.809,16.651,14.122,17.1,0,0,6.743-.219,12.443-.843,0,0,4.851-.862,7.5.708,0,0,2.007,1.917.405,5.495,0,.013-13.981,20.164-65.066,48.318" transform="translate(-25.896 454.472)" fill="#fff"/>
      <path id="XMLID_6059_" d="M203.616,193.094c1.28-13.936,19.282-27.531,19.282-27.531a59.647,59.647,0,0,0,18.395-19.932c3.8,25.948,18.015,29.094,18.015,29.094,26.257.65,29.75-36.686,29.75-36.686,2.85-17.4,15.506-16.458,15.506-16.458l29.429-.946,5.668-25.317c-25.285-7.3-37.323-23.406-37.323-23.406L286.832,123.48c-7.9,22.776-21.843,21.193-21.843,21.193-10.764.952-21.824-31.32-21.824-31.32-1.879,10.449-21.2,25.311-21.2,25.311-24.05,17.41-22.776,34.5-22.776,34.5l-.643,33.546c-1.583,47.443-40.817,75.939-40.817,75.939C112.8,315.235,51.416,328.521,51.416,328.521c84.779-5.392,97.132-11.71,97.132-11.71,27.878-11.079,44.934-47.456,44.934-47.456,9.812-22.165,10.133-76.261,10.133-76.261" transform="translate(112.777 350.527)" fill="#fff"/>
      <path id="XMLID_6058_" d="M95.712,91.484c-7.927.63-9.837,27.209-9.837,27.209-2.818-9.8-11.375-16.78-11.375-16.78-7.927-5.372-10.442,4.755-10.442,4.755-.939,7.592,4.092,7.9,4.092,7.9,14.9.335,16.471,21.837,16.471,21.837,6.016-5.366,6.016-28.142,6.016-28.142,1.261-9.175,6.64-5.057,6.64-5.057,4.755,4.414,8.222-.341,8.222-.341,1.9-10.114-9.786-11.381-9.786-11.381" transform="translate(180.835 456.879)" fill="#fff"/>
      <path id="XMLID_6057_" d="M82.2,93.616s26.791-11.182,29.95-40.192c0,0,2.245-13.91-9.7-11.073,0,0-9.387,1.808-6.961-5.372,0,0,1.8-6.125,11.5-26.681,0,0,2.117-5.482-.412-3.68,0,0-23.419,36.692-20.563,48.711,0,0,.959,5.707,13.6,5.063,0,0,6.318-1.255,4.439,4.742,0,0-1.268,6.44-22.171,25.009,0,0-4.845,4.33.315,3.474" transform="translate(267.107 -6.254)" fill="#fff"/>
      <path id="XMLID_6056_" d="M91.182,55.835c-2.541-.959-25.009-5.07-25.009-5.07L61.747,78.92c1.911,0,25.942,3.487,25.942,3.487Z" transform="translate(168.914 235.617)" fill="#fff"/>
      <path id="XMLID_6055_" d="M96.2,57.746c-2.548-.946-24.989-5.063-24.989-5.063L66.762,80.851c1.917,0,25.941,3.474,25.941,3.474Z" transform="translate(196.165 246.039)" fill="#fff"/>
      <path id="XMLID_6054_" d="M62.044,84.434c1.879,0,25.922,3.487,25.922,3.487l3.506-26.578c-2.535-.972-25.028-5.07-25.028-5.07Z" transform="translate(170.528 265.547)" fill="#fff"/>
      <path id="XMLID_6053_" d="M77.756,80.315S71.335,87.476,67.552,84c0,0-4.234-2.316-1.679-22.139,0,0-11.291,22.673-2.657,30.162-.006,0,10.86,7.824,14.541-11.71" transform="translate(159.223 295.922)" fill="#fff"/>
      <path id="XMLID_6052_" d="M102.491,118.759s21.084,10.655,19.2-24.777c0,0-5.848,15.306-14.573,10.114,0,0-10.642-2.393-9.8-41.428,0,0-11.9,46.819,5.173,56.091" transform="translate(340.27 300.296)" fill="#fff"/>
      <path id="XMLID_6049_" d="M108.331,59.522c-4.645-4.008-12.688,5.9-12.688,5.9-8.222,11.388-4.838,17.719-4.838,17.719C93.108,87.162,104.278,88,104.278,88a13.065,13.065,0,0,1,1.486.335C98.59,112.152,68.64,134.619,68.64,134.619c-1.9,2.837.946,1.563.946,1.563a91.733,91.733,0,0,0,41.479-45.449,30.358,30.358,0,0,1,7.116,6.331l3.172-9.908a16.959,16.959,0,0,0-7.547-7.438c.978-15.409-5.475-20.2-5.475-20.2M100.5,76.611c-4-2.335-.843-5.926-.843-5.926,5.038-2.5,7.27,3.494,7.27,3.494a24.645,24.645,0,0,1,.322,3.223,18.81,18.81,0,0,0-2.316-.373,25.657,25.657,0,0,1-4.433-.418" transform="translate(202.825 278.015)" fill="#fff"/>
      <path id="XMLID_6048_" d="M233,204.3s-15.493-32.9-54.74-88.9c0,0-29.409-35.438-43.429-95.563,0,0-17.951,45.565,19.392,98.1,0,0,52.867,80.031,70.554,119.284,0,0,34.183,70.239,35.135,132.255,0,0,1.583,63.908-27.511,116.434,0,0-18.382,40.495-51.915,65.8,0,0-49.341,31.655-108.212,48.422,0,0,87.018-9.477,115.192-26.257,0,0,33.836-29.75,59.127-96.193,0,0,21.534-55.035,24.069-125.918-.006-.006-2.844-79.742-37.664-147.458" transform="translate(226.1 67.525)" fill="#fff"/>
      <path id="XMLID_6047_" d="M95.83,70.59c-11.51,6.865-10.159,38.874-10.159,38.874,2.509-32.047,9.664-28.624,9.664-28.624,6.273-.914,5.482-6.376,5.482-6.376-.72-5.115-4.986-3.873-4.986-3.873" transform="translate(298.65 342.623)" fill="#fff"/>
      <path id="XMLID_6046_" d="M91.747,72.219s-7.3-1.9-9.2,13.608c0,0,12.656-12.031,15.2,18.665,0,.007,7.6-27.839-6-32.272" transform="translate(281.934 351.796)" fill="#fff"/>
      <path id="XMLID_6042_" d="M172.158,403.97c1-17.121,10.635-33.051,14.959-39.44.676,16.046,4.838,52.681,29.055,53.659,0,0,25.3,3.815,29.409-60.112,0,0,9.175,14.566,23.091,11.394,0,0,11.993,0,16.773-34.177,0,0,9.812,20.556,25.613-13.3,0,0,23.748-.3,31.655-61.057,0,0,4.439-35.747-33.225-67.086,0,0-32.6-32.588-29.107-64.538,0,0,5.385-33.546,28.817-61.386,0,0,19.926,36.068,47.752,63.921,0,0,54.4,55.685,29.731,146.178,0,0,17.1-21.515,13.292-101.572,0,0-4.414-39.864-39.227-75.315,0,0-38.6-41.138-52.192-73.391,0,0-3.159,19.932-11.079,30.683,0,0-39.562,67.71-18.343,125.628a160.476,160.476,0,0,0,32.884,43.654s27.215,28.476,23.419,41.762c0,0-16.458,36.068-17.712,8.551,0,0-2.239-3.159-3.185,5.038,0,0,2.233,17.745-11.716,26.6,0,0-12.63,7.592-13.576-9.188,0,0-1.274-2.194-2.522,3.165,0,0-.959,30.065-20.241,36.377,0,0-17.436,5.385-14.251-15.184,0,0-.643-5.366-4.111,0,0,0-5.089,11.092-8.557,33.54,0,0-3.468,29.12-24.359,31.648,0,0-21.09-2.059-22.409-32.684,14.869-17.893,42.966-54.308,42.966-54.308,22.789-27.537,11.394-46.2,11.394-46.2-29.416,61.058-96.83,64.538-96.83,64.538-24.687.946-21.2-9.805-21.2-9.805,4.446-5.694,14.869-8.531,14.869-8.531,43.049-10.449,37.355-38.61,37.355-38.61-7.3,17.076-28.811,18.646-28.811,18.646-20.228.965-26.244,19.964-26.244,19.964a196.1,196.1,0,0,1-9.194,25.6c35.438,27.543,80.372-7.579,80.372-7.579-30.072,30.381-31.635,75.3-31.635,75.3l-1.261,51.889c-6.685,62.222-37.22,77.425-50.326,81.105,31.089-68.244-2.876-103.984-12.881-112.567,31.185-68.244-14.328-100.459-14.328-100.459-22.911,66.166-7.637,97.879,1.222,109.466-15.4,32.3-15.139,66.449-15.139,66.449,1.467,28.56,8.84,44.542,16.9,53.517-18.427,14.341-55.177,35.1-55.177,35.1,28.586-9.709,47.643-21.206,59.822-30.677,9.548,7.637,18.645,6.923,18.645,6.923,57.583-5.366,58.516-114.845,58.516-114.845ZM90.525,338.782c23.857,26.868,11.233,60.511,5.025,73.237-23.316-22.081-5.025-73.237-5.025-73.237m4.632,94.2c35.978,36.268,18.768,78.674,9.181,95.942-46.131-20.485-16.908-81.556-9.181-95.942" transform="translate(22.737 110.551)" fill="#fff"/>
    </g>
    <g id="XMLID_5998_" transform="translate(0 702.107)">
      <path id="XMLID_6040_" d="M51.043,136.473H24.574v-4.755h4.954c0-8.274,3.429-12.456,10.281-12.456a14.106,14.106,0,0,1,7.894,2.863,33.518,33.518,0,0,1-.984,3.674,8.272,8.272,0,0,0-5.559-1.892c-4.246.1-6.344,2.7-6.344,7.8h7.322l4.793-.579Z" transform="translate(-24.574 -94.286)" fill="#fff"/>
      <path id="XMLID_6039_" d="M36.291,116.641l-.566,7.013v27.061H30.488V123.693l-.778-6.53Z" transform="translate(3.329 -108.528)" fill="#fff"/>
      <path id="XMLID_6038_" d="M50.271,140.793H46.044a8.255,8.255,0,0,1-2.619-.386q-.975,9.168-11.311,12.031l-1.145-2.072c4.915-1.518,7.328-4.9,7.328-10.172l-.051-13.222-1.068-7.064,6.3-1.441v13.177c0,2.9,1.261,4.388,3.835,4.388h2.96Z" transform="translate(10.176 -98.606)" fill="#fff"/>
      <path id="XMLID_6035_" d="M70.743,141.319H58.216a14.1,14.1,0,0,1-5.5-1.37,11.635,11.635,0,0,1-3.642.2c-1.518,0-2.265.373-2.316,1.171H33.729v-4.742H45.947a9.383,9.383,0,0,0,2.02-.219c-1.21-1.049-4.111-3.8-8.769-8.223,0-2.477,1.325-4.742,3.976-6.749a15.61,15.61,0,0,1,9.644-3.018,15.466,15.466,0,0,1,9.632,3.082c2.593,1.943,3.847,4.208,3.847,6.685-.508.463-3.461,3.217-8.834,8.222a10.056,10.056,0,0,0,2.117.219H70.75v4.742ZM60.629,127.177a4.2,4.2,0,0,0-2.059-2.792,10.864,10.864,0,0,0-5.752-1.441,10.564,10.564,0,0,0-5.694,1.441,4.693,4.693,0,0,0-2.188,2.792c1.756,1.686,4.356,4.163,7.882,7.418Z" transform="translate(25.173 -99.138)" fill="#fff"/>
      <path id="XMLID_6030_" d="M85.387,157.567H82.595a8.6,8.6,0,0,1-5.269-1.589,7.871,7.871,0,0,1-5.006,1.589,9.457,9.457,0,0,1-7.064-3.017,7.285,7.285,0,0,1-6.382,3.017,9.945,9.945,0,0,1-7.135-3.114,7.149,7.149,0,0,1-.984,1.094,7.936,7.936,0,0,1-5.63,2.02H39v-4.755H43.85c2.529,0,3.79-1.377,3.79-4.163l.109-10.166,5.186-1.177v13.756a6.4,6.4,0,0,0,4.581,1.808c2.471,0,3.732-1.377,3.732-4.163V138.484l5.231-1.177v13.6a6.106,6.106,0,0,0,4.536,1.962c2.477,0,3.725-1.377,3.725-4.163v-5.179l-.978-6.839,6.267-1.441V148.7c0,2.734,1.274,4.111,3.809,4.111H85.4v4.755ZM62.3,126.819a3.152,3.152,0,0,1-3.2,3.165,3.207,3.207,0,0,1-3.288-3.243A3.257,3.257,0,0,1,59.1,123.6a3.223,3.223,0,0,1,3.2,3.217m4.169-8.165a3.188,3.188,0,0,1-6.376,0,3.27,3.27,0,0,1,3.159-3.275,3.18,3.18,0,0,1,3.217,3.275m4.259,8.165a3.24,3.24,0,0,1-6.479-.077,3.24,3.24,0,0,1,6.479.077" transform="translate(53.842 -115.38)" fill="#fff"/>
      <path id="XMLID_6029_" d="M63.7,143.026c0,4.9-3,7.869-7.862,7.869H45.993v-4.748h8.576c2.593,0,3.86-1.435,3.86-4.33V125.062l-.907-6.968,6.177-1.486Z" transform="translate(91.814 -108.707)" fill="#fff"/>
      <path id="XMLID_6028_" d="M56.228,116.641l-.547,7.013v27.061H50.425V123.693l-.772-6.53Z" transform="translate(111.702 -108.528)" fill="#fff"/>
      <path id="XMLID_6025_" d="M93.893,141.635H89.054c-2.683,0-4.69-.695-6.048-2.13-2.014,1.435-4.813,2.13-8.338,2.13H61.852c-2.586,0-3.847,1.3-3.847,3.944v6.839l-5.224-3.526v-4.735c0-4.5,3-7.277,7.8-7.277h7.373a10.983,10.983,0,0,1-1.576-5.662,12.8,12.8,0,0,1,3.468-9.368c2.342-2.374,5.514-3.539,9.567-3.539a25.049,25.049,0,0,1,7.515,1.216l-.515,5.488v7c0,3.217,1.274,4.864,3.841,4.864H93.88v4.755ZM81.417,125.376l-.425-3.037a8.38,8.38,0,0,0-2.741-.393c-4.439,0-6.646,2.747-6.646,8.274,0,4.427,1.518,6.653,4.536,6.653,3.751,0,5.636-2.374,5.636-7.084a28.9,28.9,0,0,0-.36-4.414" transform="translate(128.694 -99.448)" fill="#fff"/>
      <path id="XMLID_6024_" d="M79,150.622H75.509a8.164,8.164,0,0,1-5.269-1.647,7.462,7.462,0,0,1-4.993,1.647H58.826v-4.755h5.051c2.535,0,3.783-1.428,3.783-4.323V125.151l-1-7.052,6.3-1.441v24.88c0,2.9,1.248,4.324,3.764,4.324H79Z" transform="translate(161.547 -108.435)" fill="#fff"/>
      <path id="XMLID_6023_" d="M91.854,141.814H61.731v-4.755H84.494a42.4,42.4,0,0,0-5.256-8.911c-2.915-3.957-5.482-5.913-7.637-5.913-1.583,0-2.4.991-2.4,2.966a11.982,11.982,0,0,0,.753,3.526l-5.475.624c.592-6.91,4.169-11.073,8.814-11.073,4,0,8.107,2.96,12.282,8.924,3.835,5.469,5.893,10.333,6.279,14.611" transform="translate(177.333 -99.627)" fill="#fff"/>
      <path id="XMLID_6022_" d="M87.273,140.793H83.04a8.39,8.39,0,0,1-2.644-.386c-.624,6.112-4.362,10.114-11.279,12.031l-1.152-2.072c4.915-1.518,7.354-4.9,7.354-10.172l-.058-13.228L74.167,119.9l6.3-1.435v13.177c0,2.9,1.267,4.388,3.841,4.388h2.972v4.761Z" transform="translate(211.208 -98.606)" fill="#fff"/>
      <path id="XMLID_6019_" d="M107.729,141.319H95.17a14.177,14.177,0,0,1-5.488-1.37,11.687,11.687,0,0,1-3.648.2c-1.531,0-2.278.373-2.29,1.171H70.728v-4.742H82.946a9.5,9.5,0,0,0,2.014-.219c-1.21-1.055-4.124-3.8-8.776-8.223,0-2.477,1.325-4.742,3.963-6.749a16.785,16.785,0,0,1,19.3.064c2.58,1.943,3.854,4.208,3.854,6.685-.534.463-3.481,3.217-8.853,8.222a10.28,10.28,0,0,0,2.117.219h11.176v4.742ZM97.57,127.177a4.088,4.088,0,0,0-2.027-2.792,10.88,10.88,0,0,0-5.752-1.441,10.61,10.61,0,0,0-5.694,1.441,4.592,4.592,0,0,0-2.175,2.792c1.737,1.686,4.337,4.163,7.869,7.418Z" transform="translate(226.221 -99.138)" fill="#fff"/>
      <path id="XMLID_6014_" d="M122.371,157.567h-2.805a8.5,8.5,0,0,1-5.237-1.589,7.979,7.979,0,0,1-5.012,1.589,9.509,9.509,0,0,1-7.084-3.017,7.269,7.269,0,0,1-6.357,3.017,9.862,9.862,0,0,1-7.122-3.114,9.716,9.716,0,0,1-1.01,1.094,7.957,7.957,0,0,1-5.642,2.02H76v-4.755H80.84c2.535,0,3.8-1.377,3.8-4.163l.1-10.166,5.186-1.177v13.756A6.463,6.463,0,0,0,94.5,152.87c2.471,0,3.745-1.377,3.745-4.163V138.484l5.2-1.177V150.9A6.2,6.2,0,0,0,108,152.87c2.477,0,3.745-1.377,3.745-4.163v-5.179l-.984-6.839,6.267-1.435v13.453c0,2.735,1.267,4.111,3.8,4.111h1.563v4.748ZM99.3,126.819a3.16,3.16,0,0,1-3.223,3.165,3.221,3.221,0,0,1-3.281-3.243,3.269,3.269,0,0,1,3.281-3.14,3.223,3.223,0,0,1,3.223,3.217m4.137-8.165a3.178,3.178,0,0,1-6.357,0,3.259,3.259,0,0,1,3.146-3.275,3.167,3.167,0,0,1,3.211,3.275m4.3,8.165a3.25,3.25,0,0,1-6.5-.077,3.25,3.25,0,0,1,6.5.077" transform="translate(254.88 -115.38)" fill="#fff"/>
      <path id="XMLID_6013_" d="M100.709,143.026c0,4.9-3,7.869-7.843,7.869H82.984v-4.748h8.6c2.574,0,3.86-1.435,3.86-4.33V125.062l-.9-6.968,6.164-1.486v26.418Z" transform="translate(292.819 -108.707)" fill="#fff"/>
      <path id="XMLID_6012_" d="M93.222,116.641l-.585,7.013v27.061H87.426V123.693l-.778-6.53Z" transform="translate(312.724 -108.528)" fill="#fff"/>
      <path id="XMLID_6007_" d="M112.058,138.52a12.593,12.593,0,0,1-3.108,8.769,10.807,10.807,0,0,1-8.255,3.333,10.537,10.537,0,0,1-8-3.165,12.373,12.373,0,0,1-2.921-8.55,13.042,13.042,0,0,1,2.992-8.924,10.907,10.907,0,0,1,8.486-3.423c6.768-.007,10.8,4.446,10.8,11.961m-11.832-18.645a3.253,3.253,0,0,1-6.5-.077,3.253,3.253,0,0,1,6.5.077m6.2,18.645q0-8.367-5.379-8.37c-3.809,0-5.694,2.792-5.694,8.37,0,5.649,1.853,8.5,5.488,8.5,3.732,0,5.585-2.85,5.585-8.5m2.149-18.645a3.155,3.155,0,0,1-3.217,3.165A3.207,3.207,0,0,1,102.1,119.8a3.258,3.258,0,0,1,3.255-3.14,3.213,3.213,0,0,1,3.217,3.217" transform="translate(329.732 -108.435)" fill="#fff"/>
      <path id="XMLID_6006_" d="M105.916,138.554c0,7.135-3.777,11.748-11.337,13.884l-1.094-2.072q7.277-2.278,7.283-10.172l-.058-13.228L99.643,119.9l6.273-1.435v20.087Z" transform="translate(349.886 -98.606)" fill="#fff"/>
      <path id="XMLID_6005_" d="M109.154,150.622h-4.118c-4.787,0-7.791-2.972-7.791-7.868V124.835l-.92-6.736,6.183-1.441v24.88c0,2.9,1.28,4.324,3.79,4.324h2.85v4.761Z" transform="translate(365.313 -108.435)" fill="#fff"/>
      <path id="XMLID_6002_" d="M125.074,119.529l-.476,5.488v7.328c0,6.17-3.937,9.284-11.78,9.284H98.09v-4.748h8.023a10.967,10.967,0,0,1-1.615-5.662,12.872,12.872,0,0,1,3.494-9.368c2.29-2.374,5.488-3.539,9.535-3.539a25.081,25.081,0,0,1,7.547,1.216m-5.546,5.842-.412-3.037a8.171,8.171,0,0,0-2.747-.393c-4.426,0-6.614,2.747-6.614,8.274,0,4.427,1.531,6.653,4.523,6.653,3.732,0,5.642-2.381,5.642-7.084a28.639,28.639,0,0,0-.392-4.414" transform="translate(374.903 -99.442)" fill="#fff"/>
      <path id="XMLID_5999_" d="M113.594,160.758H102.74v-1.995h1.911c0-2.9,1.5-5.063,4.195-5.063a5.338,5.338,0,0,1,3.172,1.107c-.174.405-.36.946-.631,1.634a3.391,3.391,0,0,0-1.917-1c-1.46.071-2.22,1.145-2.22,3.326h2.612l1.95-.219Zm-1.358-44.117-.573,7.019v27.055h-5.237V123.693l-.778-6.53Z" transform="translate(400.171 -108.528)" fill="#fff"/>
    </g>
  </g>
</svg>
