<svg xmlns="http://www.w3.org/2000/svg" width="21.776" height="11.76" viewBox="0 0 21.776 11.76">
  <path id="Path_103" data-name="Path 103" d="M-588.269,108.6c-.828-.337-.765-1.1-.228-1.634,3.05-3,6.072-6.035,9.1-9.056a1.619,1.619,0,0,0,.238-.253,1.014,1.014,0,0,1-.22-.129q-4.6-4.575-9.188-9.153a.9.9,0,0,1-.306-.971.833.833,0,0,1,1.314-.4,2.026,2.026,0,0,1,.172.158q4.939,4.923,9.872,9.852a1.406,1.406,0,0,1,.332.572.717.717,0,0,1-.2.686c-.057.063-.117.123-.177.183q-4.855,4.841-9.714,9.679a5.376,5.376,0,0,1-.618.463Z" transform="translate(108.6 588.914) rotate(90)" fill="#fff"/>
</svg>
