<svg xmlns="http://www.w3.org/2000/svg" width="111.664" height="164.3" viewBox="0 0 111.664 164.3"><g transform="translate(1.849)"><path d="M83.472,98.469c.394.1,5.269,2.144,5.269,2.144l2.177-5.4c-.484-.334-4.989-2.421-4.989-2.421Z" transform="translate(-2.959 28.219)" fill="#fff"/><path d="M85.263,97.324c-.48-.337-4.982-2.423-4.982-2.423l-2.467,5.684c.4.1,5.273,2.142,5.273,2.142Z" transform="translate(-5.213 29.061)" fill="#fff"/><path d="M94.524,87.626a11.039,11.039,0,0,0-4.173,7.287,38.566,38.566,0,0,1,6.556-6.371c4.448-3.759,4.037-7.334,4.037-7.334-1.556,2.658-6.42,6.419-6.42,6.419" transform="translate(-0.219 23.606)" fill="#fff"/><path d="M78.582,89.679s-1.312-.554-1.443,2.13c0,0,1.854-1.651,2,3.369,0,0,1.092-3.369-.557-5.5" transform="translate(-5.482 26.962)" fill="#fff"/><path d="M82.409,90.834c1.373.07,1.44-.962,1.44-.962a.8.8,0,0,0-.891-.9c-2.751.828-3.851,6.743-3.851,6.743,1.919-5.777,3.3-4.885,3.3-4.885" transform="translate(-4.698 26.7)" fill="#fff"/><path d="M41.8,92.084s-1.393,1.707-2.225.877c0,0-.915-.55-.357-5.263,0,0-2.458,5.388-.583,7.167,0,0,2.365,1.854,3.165-2.78" transform="translate(-21.102 26.191)" fill="#fff"/><path d="M59.551,106.978s2.7,1.65,3.507-2.979c0,0-1.355,1.972-2.681,1.05,0,0-1.148-1.05-.552-7.174,0,0-2.89,7.452-.274,9.1" transform="translate(-12.925 30.246)" fill="#fff"/><path d="M50.048,80.484l-1.005,3.532C55,88.185,53.351,98.5,53.351,98.5c4.306-13.8-3.3-18.017-3.3-18.017" transform="translate(-16.675 23.318)" fill="#fff"/><path d="M25.9,119.857s8.979-.517,14.167-7.5a13.271,13.271,0,0,0,2.647-8.08s-.038-2.991-3.471-1.958c0,0-2.784.962-3.3-.723a2.372,2.372,0,0,1,.857-2.268s3.953-4.2,4.057-8.29c0,0-1.93,2.546-3.676,4.643,0,0-4.313,5.077-4.631,8.79a2.929,2.929,0,0,0,3.069,3.717s1.465-.048,2.7-.183a2.952,2.952,0,0,1,1.631.154,1.036,1.036,0,0,1,.088,1.194S37,113.738,25.9,119.857" transform="translate(-25.896 27.524)" fill="#fff"/><path d="M84.5,98.25c.278-3.029,4.191-5.984,4.191-5.984a12.964,12.964,0,0,0,4-4.332c.826,5.64,3.915,6.323,3.915,6.323,5.707.141,6.466-7.974,6.466-7.974.619-3.783,3.37-3.577,3.37-3.577l6.4-.206,1.232-5.5a16.218,16.218,0,0,1-8.112-5.087l-3.37,11.208c-1.717,4.95-4.747,4.606-4.747,4.606-2.339.207-4.743-6.807-4.743-6.807-.408,2.271-4.608,5.5-4.608,5.5-5.227,3.784-4.95,7.5-4.95,7.5l-.14,7.291c-.344,10.312-8.871,16.505-8.871,16.505-9.765,7.083-23.107,9.97-23.107,9.97,18.426-1.172,21.111-2.545,21.111-2.545,6.059-2.408,9.766-10.314,9.766-10.314,2.133-4.817,2.2-16.575,2.2-16.575" transform="translate(-15.73 19.903)" fill="#fff"/><path d="M70.846,91.484c-1.723.137-2.138,5.914-2.138,5.914a8.362,8.362,0,0,0-2.472-3.647c-1.723-1.168-2.27,1.033-2.27,1.033-.2,1.65.889,1.717.889,1.717,3.239.073,3.58,4.746,3.58,4.746,1.307-1.166,1.307-6.116,1.307-6.116.274-1.994,1.443-1.1,1.443-1.1a1.131,1.131,0,0,0,1.787-.074c.413-2.2-2.127-2.474-2.127-2.474" transform="translate(-10.74 27.7)" fill="#fff"/><path d="M80.334,25.241s5.823-2.43,6.509-8.736c0,0,.488-3.023-2.107-2.407,0,0-2.04.393-1.513-1.168a52.209,52.209,0,0,1,2.5-5.8s.46-1.191-.089-.8c0,0-5.09,7.975-4.469,10.587,0,0,.208,1.24,2.956,1.1,0,0,1.373-.273.965,1.031,0,0-.275,1.4-4.819,5.435,0,0-1.053.941.069.755" transform="translate(-4.415 -6.254)" fill="#fff"/><path d="M68.145,51.867c-.552-.208-5.435-1.1-5.435-1.1l-.962,6.119c.415,0,5.638.758,5.638.758Z" transform="translate(-11.614 11.479)" fill="#fff"/><path d="M73.16,53.784c-.554-.206-5.431-1.1-5.431-1.1l-.966,6.122c.417,0,5.638.755,5.638.755Z" transform="translate(-9.616 12.243)" fill="#fff"/><path d="M62.044,62.394c.408,0,5.634.758,5.634.758l.762-5.777c-.551-.211-5.44-1.1-5.44-1.1Z" transform="translate(-11.496 13.673)" fill="#fff"/><path d="M63.831,65.874s-1.4,1.556-2.218.8c0,0-.92-.5-.365-4.812,0,0-2.454,4.928-.578,6.556,0,0,2.36,1.7,3.16-2.545" transform="translate(-12.324 15.9)" fill="#fff"/><path d="M95.283,74.859s4.582,2.316,4.173-5.385c0,0-1.271,3.327-3.167,2.2,0,0-2.313-.52-2.13-9,0,0-2.587,10.176,1.124,12.191" transform="translate(0.949 16.22)" fill="#fff"/><path d="M76.756,58.775C75.746,57.9,74,60.057,74,60.057c-1.787,2.475-1.052,3.851-1.052,3.851.5.874,2.928,1.056,2.928,1.056a2.843,2.843,0,0,1,.323.073c-1.559,5.177-8.069,10.06-8.069,10.06-.413.617.206.34.206.34a19.938,19.938,0,0,0,9.015-9.878A6.6,6.6,0,0,1,78.9,66.935l.689-2.154a3.686,3.686,0,0,0-1.64-1.616c.213-3.349-1.19-4.389-1.19-4.389m-1.7,3.714a.8.8,0,0,1-.183-1.288c1.095-.544,1.58.759,1.58.759a5.358,5.358,0,0,1,.07.7,4.089,4.089,0,0,0-.5-.081,5.576,5.576,0,0,1-.963-.091" transform="translate(-9.128 14.587)" fill="#fff"/><path d="M107.2,59.924s-3.367-7.151-11.9-19.323c0,0-6.392-7.7-9.439-20.77,0,0-3.9,9.9,4.215,21.321,0,0,11.49,17.394,15.335,25.926,0,0,7.43,15.266,7.637,28.745,0,0,.344,13.89-5.979,25.306,0,0-4,8.8-11.283,14.3a99.857,99.857,0,0,1-23.519,10.524s18.913-2.06,25.036-5.707c0,0,7.354-6.466,12.851-20.907a92.168,92.168,0,0,0,5.231-27.368s-.618-17.331-8.186-32.049" transform="translate(-7.421 -0.845)" fill="#fff"/><path d="M87.841,70.486c-2.5,1.492-2.208,8.449-2.208,8.449.545-6.965,2.1-6.221,2.1-6.221a1.239,1.239,0,0,0,1.191-1.386c-.157-1.112-1.084-.842-1.084-.842" transform="translate(-2.103 19.324)" fill="#fff"/><path d="M84.546,72.162s-1.586-.413-2,2.958c0,0,2.751-2.615,3.3,4.057,0,0,1.653-6.051-1.3-7.014" transform="translate(-3.328 19.996)" fill="#fff"/><path d="M64.69,109.519a18.472,18.472,0,0,1,3.251-8.572c.147,3.488,1.052,11.45,6.315,11.662,0,0,5.5.829,6.392-13.065,0,0,1.994,3.166,5.019,2.477,0,0,2.607,0,3.646-7.428,0,0,2.133,4.468,5.567-2.89,0,0,5.161-.066,6.88-13.271,0,0,.965-7.769-7.221-14.581,0,0-7.086-7.083-6.326-14.027a30.662,30.662,0,0,1,6.263-13.342,71.313,71.313,0,0,0,10.379,13.893s11.825,12.1,6.462,31.771c0,0,3.717-4.676,2.889-22.076A30.519,30.519,0,0,0,105.679,43.7s-8.39-8.941-11.344-15.951c0,0-.687,4.332-2.408,6.669,0,0-8.6,14.716-3.987,27.3a34.879,34.879,0,0,0,7.147,9.488s5.915,6.189,5.09,9.077c0,0-3.577,7.839-3.85,1.858,0,0-.487-.687-.692,1.095,0,0,.485,3.857-2.546,5.781,0,0-2.745,1.65-2.951-2,0,0-.277-.477-.548.688,0,0-.208,6.535-4.4,7.906,0,0-3.79,1.17-3.1-3.3,0,0-.14-1.166-.894,0a30.282,30.282,0,0,0-1.86,7.29s-.754,6.329-5.294,6.879c0,0-4.584-.447-4.871-7.1,3.232-3.889,9.338-11.8,9.338-11.8,4.953-5.985,2.477-10.042,2.477-10.042C74.6,90.809,59.945,91.565,59.945,91.565c-5.366.206-4.608-2.131-4.608-2.131a7.272,7.272,0,0,1,3.232-1.854c9.357-2.271,8.119-8.392,8.119-8.392-1.586,3.711-6.262,4.053-6.262,4.053a6.486,6.486,0,0,0-5.7,4.339,42.624,42.624,0,0,1-2,5.564c7.7,5.986,17.468-1.647,17.468-1.647-6.536,6.6-6.876,16.365-6.876,16.365l-.274,11.278c-1.453,13.524-8.09,16.828-10.938,17.628,6.757-14.833-.625-22.6-2.8-24.466,6.778-14.833-3.114-21.834-3.114-21.834-4.98,14.381-1.66,21.273.266,23.792a37,37,0,0,0-3.29,14.442c.319,6.207,1.921,9.681,3.672,11.632a130.265,130.265,0,0,1-11.992,7.628,44.114,44.114,0,0,0,13-6.667,6.267,6.267,0,0,0,4.052,1.5c12.515-1.166,12.718-24.961,12.718-24.961ZM46.948,95.351c5.185,5.84,2.442,13.152,1.092,15.918-5.068-4.8-1.092-15.918-1.092-15.918m1.007,20.474c7.82,7.883,4.079,17.1,2,20.853-10.026-4.452-3.675-17.726-2-20.853" transform="translate(-22.331 2.31)" fill="#fff"/></g><g transform="translate(0 152.6)"><path d="M30.327,123H24.574v-1.033h1.077c0-1.8.745-2.707,2.235-2.707a3.066,3.066,0,0,1,1.716.622,7.285,7.285,0,0,1-.214.8,1.8,1.8,0,0,0-1.208-.411c-.923.022-1.379.586-1.379,1.7h1.591l1.042-.126Z" transform="translate(-24.574 -113.834)" fill="#fff"/><path d="M31.14,116.641l-.123,1.524v5.882H29.878v-5.873l-.169-1.419Z" transform="translate(-22.528 -114.878)" fill="#fff"/><path d="M35.164,123.319h-.919a1.794,1.794,0,0,1-.569-.084,2.955,2.955,0,0,1-2.458,2.615l-.249-.45a2.094,2.094,0,0,0,1.593-2.211l-.011-2.874-.232-1.535,1.369-.313v2.864c0,.631.274.954.833.954h.643Z" transform="translate(-22.026 -114.15)" fill="#fff"/><path d="M41.774,123.357H39.051a3.065,3.065,0,0,1-1.2-.3,2.529,2.529,0,0,1-.791.043c-.33,0-.492.081-.5.254H33.729v-1.031h2.656a2.039,2.039,0,0,0,.439-.048c-.263-.228-.894-.825-1.906-1.787a1.853,1.853,0,0,1,.864-1.467,3.641,3.641,0,0,1,4.19.014,1.807,1.807,0,0,1,.836,1.453c-.11.1-.752.7-1.92,1.787a2.185,2.185,0,0,0,.46.048h2.428v1.031Zm-2.2-3.074a.913.913,0,0,0-.447-.607,2.361,2.361,0,0,0-1.25-.313,2.3,2.3,0,0,0-1.238.313,1.02,1.02,0,0,0-.475.607c.382.366.947.9,1.713,1.612Z" transform="translate(-20.927 -114.189)" fill="#fff"/><path d="M49.086,124.549h-.607a1.87,1.87,0,0,1-1.145-.345,1.711,1.711,0,0,1-1.088.345,2.055,2.055,0,0,1-1.535-.656,1.583,1.583,0,0,1-1.387.656,2.161,2.161,0,0,1-1.551-.677,1.554,1.554,0,0,1-.214.238,1.725,1.725,0,0,1-1.224.439h-1.33v-1.033h1.053c.55,0,.824-.3.824-.9l.024-2.209,1.127-.256v2.99a1.392,1.392,0,0,0,1,.393c.537,0,.811-.3.811-.9V120.4l1.137-.256V123.1a1.327,1.327,0,0,0,.986.427c.538,0,.81-.3.81-.9V121.5l-.213-1.486,1.362-.313v2.924c0,.594.277.894.828.894h.34v1.033Zm-5.017-6.683a.685.685,0,0,1-.7.688.7.7,0,0,1-.715-.7.708.708,0,0,1,.715-.682.7.7,0,0,1,.7.7m.906-1.775a.693.693,0,0,1-1.386,0,.711.711,0,0,1,.687-.712.691.691,0,0,1,.7.712m.926,1.775a.7.7,0,0,1-1.408-.017.7.7,0,0,1,1.408.017" transform="translate(-18.825 -115.38)" fill="#fff"/><path d="M49.841,122.35a1.581,1.581,0,0,1-1.709,1.71h-2.14v-1.032h1.864c.564,0,.839-.312.839-.941v-3.641l-.2-1.514,1.342-.323Z" transform="translate(-16.041 -114.891)" fill="#fff"/><path d="M51.082,116.641l-.119,1.524v5.882H49.821v-5.873l-.168-1.419Z" transform="translate(-14.583 -114.878)" fill="#fff"/><path d="M61.716,123.381H60.664a1.721,1.721,0,0,1-1.314-.463,3.086,3.086,0,0,1-1.812.463H54.752a.745.745,0,0,0-.836.857v1.486l-1.135-.766v-1.029a1.523,1.523,0,0,1,1.695-1.582h1.6a2.387,2.387,0,0,1-.343-1.231,2.626,2.626,0,0,1,2.833-2.805,5.444,5.444,0,0,1,1.633.264l-.112,1.193v1.521c0,.7.277,1.057.835,1.057h.789v1.033ZM59,119.847l-.092-.66a1.822,1.822,0,0,0-.6-.085c-.965,0-1.445.6-1.445,1.8,0,.962.33,1.446.986,1.446.815,0,1.225-.516,1.225-1.54a6.282,6.282,0,0,0-.078-.959" transform="translate(-13.337 -114.212)" fill="#fff"/><path d="M63.21,124.04h-.758a1.774,1.774,0,0,1-1.145-.358,1.622,1.622,0,0,1-1.085.358h-1.4v-1.033h1.1c.551,0,.822-.31.822-.94V118.5l-.217-1.533,1.369-.313v5.408c0,.629.271.94.818.94h.494Z" transform="translate(-10.929 -114.871)" fill="#fff"/><path d="M68.278,123.394H61.731v-1.033h4.947a9.214,9.214,0,0,0-1.142-1.937c-.633-.86-1.191-1.285-1.66-1.285-.344,0-.522.215-.522.645a2.6,2.6,0,0,0,.164.766l-1.19.136c.129-1.5.906-2.407,1.916-2.407.868,0,1.762.643,2.669,1.94a6.812,6.812,0,0,1,1.365,3.176" transform="translate(-9.772 -114.225)" fill="#fff"/><path d="M72.162,123.319h-.92a1.824,1.824,0,0,1-.575-.084,2.939,2.939,0,0,1-2.451,2.615l-.25-.45a2.1,2.1,0,0,0,1.6-2.211l-.013-2.875-.238-1.535,1.369-.312v2.864c0,.631.275.954.835.954h.646v1.035Z" transform="translate(-7.288 -114.15)" fill="#fff"/><path d="M78.77,123.357H76.04a3.081,3.081,0,0,1-1.193-.3,2.54,2.54,0,0,1-.793.043c-.333,0-.5.081-.5.254H70.728v-1.031h2.656a2.065,2.065,0,0,0,.438-.048c-.263-.229-.9-.825-1.907-1.787a1.856,1.856,0,0,1,.861-1.467,3.648,3.648,0,0,1,4.194.014,1.816,1.816,0,0,1,.838,1.453c-.116.1-.757.7-1.924,1.787a2.234,2.234,0,0,0,.46.048h2.429v1.031Zm-2.208-3.074a.888.888,0,0,0-.44-.607,2.365,2.365,0,0,0-1.25-.313,2.306,2.306,0,0,0-1.238.313,1,1,0,0,0-.473.607c.378.366.943.9,1.71,1.612Z" transform="translate(-6.188 -114.189)" fill="#fff"/><path d="M86.08,124.549h-.61a1.848,1.848,0,0,1-1.138-.345,1.734,1.734,0,0,1-1.089.345,2.067,2.067,0,0,1-1.54-.656,1.58,1.58,0,0,1-1.382.656,2.143,2.143,0,0,1-1.548-.677,2.111,2.111,0,0,1-.22.238,1.73,1.73,0,0,1-1.226.439H76v-1.033h1.052c.551,0,.826-.3.826-.9L77.9,120.4l1.127-.256v2.99a1.4,1.4,0,0,0,.994.393c.537,0,.814-.3.814-.9V120.4l1.131-.256V123.1a1.347,1.347,0,0,0,.989.428c.538,0,.814-.3.814-.9V121.5l-.214-1.486,1.362-.312v2.924c0,.594.275.894.826.894h.34v1.032Zm-5.015-6.683a.687.687,0,0,1-.7.688.7.7,0,0,1-.713-.7.71.71,0,0,1,.713-.682.7.7,0,0,1,.7.7m.9-1.775a.691.691,0,0,1-1.382,0,.708.708,0,0,1,.684-.712.688.688,0,0,1,.7.712m.934,1.775a.706.706,0,0,1-1.412-.017.706.706,0,0,1,1.412.017" transform="translate(-4.086 -115.38)" fill="#fff"/><path d="M86.837,122.35a1.58,1.58,0,0,1-1.7,1.71H82.984v-1.032h1.87c.559,0,.839-.312.839-.941v-3.641l-.2-1.514,1.34-.323v5.742Z" transform="translate(-1.305 -114.891)" fill="#fff"/><path d="M88.076,116.641l-.127,1.524v5.882H86.816v-5.873l-.169-1.419Z" transform="translate(0.154 -114.878)" fill="#fff"/><path d="M94.62,121.41a2.737,2.737,0,0,1-.675,1.906,2.349,2.349,0,0,1-1.794.724,2.29,2.29,0,0,1-1.738-.688,2.689,2.689,0,0,1-.635-1.858,2.835,2.835,0,0,1,.65-1.94,2.37,2.37,0,0,1,1.844-.744c1.471,0,2.348.966,2.348,2.6m-2.572-4.053a.707.707,0,0,1-1.414-.017.707.707,0,0,1,1.414.017M93.4,121.41q0-1.819-1.169-1.819c-.828,0-1.238.607-1.238,1.819,0,1.228.4,1.847,1.193,1.847.811,0,1.214-.619,1.214-1.847m.467-4.053a.686.686,0,0,1-.7.688.7.7,0,0,1-.708-.7.708.708,0,0,1,.708-.682.7.7,0,0,1,.7.7" transform="translate(1.401 -114.871)" fill="#fff"/><path d="M96.188,122.833a2.946,2.946,0,0,1-2.464,3.018l-.238-.45a2.1,2.1,0,0,0,1.583-2.211l-.013-2.875-.232-1.535,1.363-.312v4.366Z" transform="translate(2.879 -114.15)" fill="#fff"/><path d="M99.113,124.04h-.895a1.577,1.577,0,0,1-1.693-1.71v-3.894l-.2-1.464,1.344-.313v5.407c0,.629.278.94.824.94h.619v1.035Z" transform="translate(4.01 -114.871)" fill="#fff"/><path d="M103.955,118.577l-.1,1.193v1.593c0,1.341-.856,2.018-2.56,2.018h-3.2v-1.032h1.744a2.384,2.384,0,0,1-.351-1.231,2.8,2.8,0,0,1,.759-2.036,2.748,2.748,0,0,1,2.072-.769,5.451,5.451,0,0,1,1.64.264m-1.205,1.27-.09-.66a1.776,1.776,0,0,0-.6-.085c-.962,0-1.438.6-1.438,1.8,0,.962.333,1.446.983,1.446.811,0,1.226-.517,1.226-1.54a6.225,6.225,0,0,0-.085-.959" transform="translate(4.713 -114.212)" fill="#fff"/><path d="M105.1,126.23H102.74V125.8h.415c0-.629.326-1.1.912-1.1a1.16,1.16,0,0,1,.689.24c-.038.088-.078.206-.137.355a.737.737,0,0,0-.417-.217c-.317.015-.482.249-.482.723h.568l.424-.048Zm-.3-9.589-.124,1.526v5.88h-1.138v-5.873l-.169-1.419Z" transform="translate(6.565 -114.878)" fill="#fff"/></g></svg>